<?xml version="1.0" encoding="utf-8"?>
<!-- Generator: Adobe Illustrator 16.0.3, SVG Export Plug-In . SVG Version: 6.00 Build 0)  -->
<!DOCTYPE svg PUBLIC "-//W3C//DTD SVG 1.1//EN" "http://www.w3.org/Graphics/SVG/1.1/DTD/svg11.dtd">
<svg version="1.1" id="Layer_1" xmlns="http://www.w3.org/2000/svg" xmlns:xlink="http://www.w3.org/1999/xlink" x="0px" y="0px"
	 width="234.115px" height="21.601px" viewBox="0 0 234.115 21.601" enable-background="new 0 0 234.115 21.601"
	 xml:space="preserve">
<g>
	<path fill="#FFFFFF" d="M45.174,2.424l-1.972,2.115l-1.236-0.903c-0.127-0.093-0.226-0.122-0.309-0.119
		c-0.093,0.003-0.167,0.047-0.238,0.119l-0.261,0.261l-0.19-0.167l1.925-2.138l1.212,0.903c0.124,0.092,0.233,0.143,0.333,0.143
		c0.104,0,0.198-0.032,0.285-0.119l0.261-0.261L45.174,2.424z"/>
	<path fill="#FFFFFF" d="M56.889,16.824l-2.02,2.187c-0.797-0.638-1.762-1.33-2.305-1.663v-0.048
		c0.214-0.19,0.238-0.389,0.238-0.855V8.816l-2.067-1.354c-0.173,0.126-0.395,0.292-0.475,0.356v8.484
		c0,0.572,0.19,0.831,0.594,0.974v0.047c-0.551,0.516-1.321,1.318-1.64,1.688c-0.576-0.493-1.49-1.175-1.972-1.497v-0.047
		c0.356-0.214,0.475-0.527,0.475-1.093V8.507l-0.523-0.452c-0.089-0.077-0.173-0.118-0.261-0.119
		c-0.107-0.002-0.22,0.054-0.356,0.19l-0.356,0.356l-0.214-0.19l2.21-2.376l2.044,1.521l2.02-1.545
		c0.857,0.62,2.577,1.599,3.469,2.043v0.048c-0.285,0.19-0.404,0.476-0.404,0.975v7.627l0.499,0.333
		c0.113,0.076,0.213,0.119,0.309,0.119c0.119,0,0.232-0.051,0.356-0.19l0.19-0.214L56.889,16.824z"/>
	<path fill="#FFFFFF" d="M46.576,16.634l-2.115,2.353c-0.689-0.546-1.647-1.242-2.4-1.687v-0.047
		c0.261-0.214,0.356-0.468,0.356-0.832V8.127l-0.499-0.333c-0.074-0.049-0.119-0.071-0.214-0.071c-0.098,0-0.198,0.067-0.285,0.166
		l-0.356,0.404l-0.214-0.214l2.02-2.186l2.495,1.568v0.023c-0.309,0.238-0.428,0.501-0.428,0.975v8.126l0.475,0.261
		c0.13,0.072,0.235,0.095,0.333,0.095c0.12,0,0.228-0.074,0.357-0.214l0.261-0.285L46.576,16.634z"/>
	<path fill="#FFFFFF" d="M41.134,16.563l-2.21,2.448c-0.947-0.638-2.372-1.499-3.255-1.972V16.99
		c0.198-0.161,0.285-0.361,0.285-0.76V7.723h-1.426l0.475-0.879h0.974V5.251c0-0.356-0.008-0.642-0.285-0.855V4.349
		c1.261-0.119,1.918-1.592,3.279-1.616l0.048,0.095c-0.328,0.214-0.546,0.689-0.546,1.592v2.353h2.21l-0.547,1.141
		c-0.151-0.119-0.328-0.19-0.642-0.19h-1.021v8.412l1.236,0.641c0.216,0.112,0.368,0.166,0.499,0.167
		c0.151,0.001,0.272-0.069,0.428-0.238l0.309-0.333L41.134,16.563z"/>
	<path fill="#FFFFFF" d="M26.401,16.729l-2.067,2.257l-2.163-1.544L20.08,19.01c-0.808-0.57-2.281-1.473-3.351-2.115v-0.048
		c0.317-0.199,0.427-0.472,0.427-0.95V8.317L16.61,7.984c-0.108-0.065-0.201-0.119-0.285-0.119c-0.103,0-0.193,0.042-0.285,0.143
		l-0.309,0.333l-0.214-0.167l2.139-2.281l2.4,1.711v0.023c-0.238,0.19-0.38,0.429-0.38,0.927v7.557l2.067,1.307l0.57-0.428V8.483
		c0-0.499-0.124-0.752-0.546-0.927V7.533l1.592-1.64l1.996,1.473v0.024c-0.356,0.237-0.499,0.586-0.499,0.998v8.15l0.356,0.261
		c0.192,0.141,0.323,0.168,0.428,0.167c0.098-0.002,0.183-0.056,0.285-0.167l0.261-0.285L26.401,16.729z"/>
	<path fill="#FFFFFF" d="M34.599,5.87c0,0.19-0.197,0.649-0.285,0.784l-2.947,4.539l2.947,1.425v0.048
		c-0.261,0.166-0.38,0.382-0.38,0.855v3.493c-1.336,0.356-3.058,1.259-4.016,1.996c-0.452-0.404-0.951-0.737-1.711-0.737
		c-1.109,0-1.782,0.475-1.782,1.165c0,0.879,0.951,1.212,1.592,1.212l-0.285,0.333c-0.782-0.095-1.687-0.618-1.687-1.71
		c0-0.876,0.572-1.506,0.927-2.044l2.59-3.921l-3.279-1.664v-0.048c0.343-0.224,0.38-0.522,0.38-1.045v-2.4
		c1.387-0.356,3.036-1.425,3.968-2.257c0.754,0.625,1.449,1.07,2.162,1.07c0.933,0,1.474-0.574,1.474-1.022
		c0-0.404-0.143-0.571-0.333-0.713l0.38-0.261C34.462,5.12,34.599,5.345,34.599,5.87z M32.912,8.246
		c-0.209,0.099-0.966,0.309-1.521,0.309c-0.713,0-1.544-0.285-2.352-1.117l-0.024,0.023v3.018l1.83,0.927L32.912,8.246z
		 M31.605,17.323v-3.445l-1.568-0.784l-2.59,3.921c0.476-0.261,1.093-0.499,2.186-0.499c0.53,0,1.185,0.235,1.925,0.808H31.605z"/>
	<path fill="#FFFFFF" d="M16.278,16.539l-2.305,2.495c-0.618-0.472-1.871-1.355-2.566-1.758v-0.048
		c0.19-0.13,0.308-0.275,0.333-0.475c0.011-0.091,0.012-0.193-0.024-0.309l-1.188-3.873h-0.048l-0.451,1.021h-0.024
		c-0.227-0.166-0.641-0.214-1.212-0.214H4.847L3.945,16.42c0.466,0.016,1.192,0.205,1.711,0.475c0.115,0.06,0.218,0.098,0.309,0.095
		c0.089-0.002,0.167-0.042,0.238-0.119l0.261-0.285l0.214,0.19l-2.091,2.21c-0.378-0.356-1.319-0.784-1.949-0.784
		c-1.235,0-1.877,0.737-1.877,1.498c0,0.95,0.543,1.497,1.426,1.497c0.706,0,1.188-0.19,1.497-0.356l-0.143,0.475
		c-0.202,0.095-0.667,0.213-1.473,0.213C1.059,21.529,0,20.816,0,19.414c0-1.829,1.684-3.018,3.398-3.042l1.949-6.678
		C5.133,9.576,4.694,9.41,4.372,9.41c-0.637,0-1.164,0.309-1.354,0.808l-0.095-0.024c-0.034-0.139-0.095-0.357-0.095-0.546
		c0-1.083,0.737-2.115,1.996-2.115c0.365,0,0.809,0.116,1.093,0.214l1.45-4.991c-0.38-0.808-1.283-1.164-2.305-1.164
		c-1.109,0-1.974,0.689-2.353,1.093L2.567,2.59C2.869,1.473,3.992,0,6.345,0c1,0,2.202,0.435,2.994,1.331h0.024
		c0.119-0.499,0.615-0.866,0.974-0.95l0.048,0.047c-0.132,0.218-0.333,0.727-0.333,1.283c0,0.333,0.064,0.683,0.166,0.998
		l4.539,13.925l0.333,0.19c0.123,0.07,0.221,0.1,0.309,0.095c0.103-0.005,0.191-0.061,0.285-0.166l0.38-0.428L16.278,16.539z
		 M10.385,12.071L7.747,3.564H7.699l-2.471,8.507H10.385z"/>
	<path fill="#FFFFFF" d="M146.511,8.745l-1.498,2.4c-1.054,0-2.05-0.29-2.804-0.404c-0.143-0.021-0.272-0.023-0.357-0.023
		c-0.182,0-0.241,0.113-0.356,0.285l-0.142,0.214l-0.238-0.143l1.497-2.423c0.545-0.013,1.801,0.268,2.709,0.451
		c0.174,0.035,0.301,0.024,0.404,0.024c0.176,0,0.277-0.118,0.404-0.309l0.143-0.214L146.511,8.745z"/>
	<path fill="#FFFFFF" d="M141.093,16.824l-2.02,2.187c-0.797-0.638-1.762-1.33-2.305-1.663v-0.048
		c0.214-0.19,0.238-0.389,0.238-0.855V8.816l-2.067-1.354c-0.173,0.126-0.395,0.292-0.475,0.356v8.484
		c0,0.572,0.19,0.831,0.594,0.974v0.047c-0.551,0.516-1.321,1.318-1.64,1.688c-0.577-0.493-1.49-1.175-1.973-1.497v-0.047
		c0.357-0.214,0.476-0.527,0.476-1.093V8.507l-0.523-0.452c-0.089-0.077-0.173-0.118-0.262-0.119
		c-0.106-0.002-0.219,0.054-0.356,0.19l-0.356,0.356l-0.215-0.19l2.21-2.376l2.044,1.521l2.02-1.545
		c0.857,0.62,2.577,1.599,3.47,2.043v0.048c-0.285,0.19-0.404,0.476-0.404,0.975v7.627l0.498,0.333
		c0.113,0.076,0.213,0.119,0.309,0.119c0.119,0,0.233-0.051,0.357-0.19l0.19-0.214L141.093,16.824z"/>
	<path fill="#FFFFFF" d="M112.417,2.424l-1.972,2.115l-1.236-0.903c-0.126-0.093-0.225-0.122-0.309-0.119
		c-0.093,0.003-0.167,0.047-0.238,0.119l-0.261,0.261l-0.19-0.167l1.925-2.138l1.212,0.903c0.124,0.092,0.233,0.143,0.333,0.143
		c0.104,0,0.197-0.032,0.285-0.119l0.261-0.261L112.417,2.424z"/>
	<path fill="#FFFFFF" d="M121.631,7.034c-0.317,0.697-0.85,1.616-2.013,1.616c-1.049,0-1.759-0.594-2.21-1.236l-0.047,0.024v8.222
		l2.068,1.045c0.264,0.134,0.445,0.19,0.618,0.19c0.184,0,0.354-0.107,0.496-0.262l0.308-0.332l0.189,0.166l-2.324,2.543
		c-1.236-0.737-3.137-1.734-4.253-2.234v-0.023c0.285-0.214,0.38-0.465,0.38-0.951V8.246c1.588-0.522,2.787-1.212,3.921-2.376
		c0.713,0.697,1.555,1.067,2.844,1.117L121.631,7.034z"/>
	<path fill="#FFFFFF" d="M113.82,16.634l-2.115,2.353c-0.689-0.546-1.647-1.242-2.4-1.687v-0.047
		c0.261-0.214,0.357-0.468,0.357-0.832V8.127l-0.499-0.333c-0.074-0.049-0.119-0.071-0.214-0.071c-0.098,0-0.198,0.067-0.285,0.166
		l-0.356,0.404l-0.214-0.214l2.021-2.186l2.495,1.568v0.023c-0.309,0.238-0.428,0.501-0.428,0.975v8.126l0.475,0.261
		c0.13,0.072,0.235,0.095,0.333,0.095c0.121,0,0.229-0.074,0.357-0.214l0.262-0.285L113.82,16.634z"/>
	<path fill="#FFFFFF" d="M108.117,7.058c-0.317,0.797-0.977,1.616-1.901,1.616c-0.978,0-1.713-0.434-2.162-0.832h-0.048v8.602
		l0.713,0.38c0.254,0.135,0.354,0.198,0.476,0.19c0.113-0.007,0.228-0.102,0.356-0.238l0.404-0.428l0.214,0.19l-2.234,2.471
		c-0.831-0.594-2.165-1.306-2.875-1.663v-0.024c0.309-0.237,0.427-0.61,0.427-1.045V8.293l-0.57-0.404
		c-0.112-0.08-0.2-0.095-0.285-0.095c-0.091,0-0.18,0.055-0.285,0.166l-0.381,0.404L99.752,8.15l2.066-2.233l2.115,1.688l1.45-1.711
		c0.661,0.672,1.522,1.092,2.685,1.117L108.117,7.058z"/>
	<path fill="#FFFFFF" d="M91.744,16.634l-2.234,2.4c-0.818-0.601-1.854-1.307-2.424-1.687v-0.024
		c0.381-0.261,0.381-0.455,0.381-0.879V9.006l-1.949-1.355l-0.594,0.523v8.341c0,0.324,0.191,0.57,0.57,0.737v0.047l-1.639,1.711
		c-0.615-0.499-1.477-1.151-1.996-1.497v-0.047c0.404-0.309,0.523-0.503,0.523-0.927V8.935l-2.043-1.402l-0.546,0.452v8.436
		c0,0.38,0.213,0.689,0.617,0.832v0.047l-1.663,1.711c-0.531-0.416-1.338-1.028-1.973-1.473v-0.048
		c0.375-0.231,0.499-0.604,0.499-1.069v-8.08l-0.451-0.333c-0.102-0.076-0.197-0.098-0.285-0.095
		c-0.128,0.004-0.244,0.071-0.356,0.19l-0.404,0.427l-0.213-0.214l2.234-2.4l1.996,1.663l2.091-1.663
		c0.876,0.678,2.094,1.55,2.828,2.02l2.234-2.02c0.829,0.645,2.513,1.742,3.469,2.329v0.048c-0.378,0.261-0.404,0.547-0.404,1.045
		v7.2l0.476,0.309c0.152,0.099,0.257,0.146,0.356,0.143c0.115-0.004,0.221-0.078,0.38-0.237l0.309-0.309L91.744,16.634z"/>
	<path fill="#FFFFFF" d="M130.685,16.61l-2.163,2.4l-2.139-1.45l-2.329,1.45c-1.346-0.597-2.519-2.118-2.519-3.636
		c0-2.4,2.417-3.348,4.206-4.182l0.713-0.333V8.816l-2.875-1.425l-0.214,0.189c-0.071,0.286-0.095,0.594-0.095,1.094
		c0,0.642,0.334,1.282,0.713,1.473l-0.143,0.167c-1.008-0.072-1.702-1.045-1.853-2.043c0.886-0.575,2.361-1.731,3.113-2.4
		l4.349,1.948v0.048c-0.277,0.261-0.428,0.594-0.428,1.141v7.556l0.404,0.285c0.145,0.103,0.256,0.167,0.356,0.167
		c0.129,0,0.253-0.09,0.381-0.238l0.309-0.356L130.685,16.61z M126.455,17.133v-5.94l-0.761,0.38
		c-1.023,0.512-1.663,1.616-1.663,3.232c0,1.344,0.895,2.356,1.687,2.804L126.455,17.133z"/>
	<path fill="#FFFFFF" d="M99.99,9.386l-4.872,3.255v3.089l2.162,1.117c0.169,0.087,0.295,0.119,0.404,0.119
		c0.167,0,0.295-0.093,0.476-0.285l0.357-0.38l0.213,0.19l-2.305,2.519c-1.592-0.974-3.137-1.83-4.277-2.4v-0.048
		c0.404-0.19,0.452-0.52,0.452-0.998V8.531c1.563-0.522,3.355-1.592,4.515-2.614C97.752,6.803,99.175,8.522,99.99,9.386z
		 M97.542,10.646c-0.625-0.77-1.807-2.21-2.353-3.041l-0.072,0.047v4.61L97.542,10.646z"/>
	<path fill="#FFFFFF" d="M76.321,16.539l-2.305,2.495c-0.618-0.472-1.871-1.355-2.566-1.758v-0.048
		c0.191-0.13,0.308-0.275,0.333-0.475c0.011-0.091,0.012-0.193-0.024-0.309l-1.188-3.873h-0.047l-0.452,1.021h-0.024
		c-0.227-0.166-0.642-0.214-1.212-0.214h-3.945l-0.903,3.042c0.466,0.016,1.193,0.205,1.711,0.475
		c0.116,0.06,0.218,0.098,0.309,0.095c0.089-0.002,0.168-0.042,0.238-0.119l0.261-0.285l0.214,0.19l-2.091,2.21
		c-0.378-0.356-1.319-0.784-1.949-0.784c-1.235,0-1.877,0.737-1.877,1.498c0,0.95,0.543,1.497,1.426,1.497
		c0.706,0,1.188-0.19,1.497-0.356l-0.143,0.475c-0.202,0.095-0.667,0.213-1.473,0.213c-1.008,0-2.067-0.712-2.067-2.115
		c0-1.829,1.684-3.018,3.398-3.042l1.949-6.678c-0.214-0.119-0.653-0.285-0.974-0.285c-0.637,0-1.164,0.309-1.354,0.808
		l-0.095-0.024c-0.034-0.139-0.095-0.357-0.095-0.546c0-1.083,0.737-2.115,1.996-2.115c0.365,0,0.809,0.116,1.093,0.214l1.449-4.991
		c-0.38-0.808-1.283-1.164-2.305-1.164c-1.109,0-1.974,0.689-2.353,1.093L62.61,2.59C62.913,1.473,64.036,0,66.389,0
		c1,0,2.202,0.435,2.994,1.331h0.024c0.119-0.499,0.615-0.866,0.975-0.95l0.047,0.047c-0.132,0.218-0.333,0.727-0.333,1.283
		c0,0.333,0.064,0.683,0.167,0.998l4.539,13.925l0.333,0.19c0.123,0.07,0.221,0.1,0.309,0.095c0.103-0.005,0.19-0.061,0.285-0.166
		l0.38-0.428L76.321,16.539z M70.428,12.071l-2.637-8.507h-0.048l-2.471,8.507H70.428z"/>
	<path fill="#FFFFFF" d="M129.949,16.943"/>
	<g>
		<path fill="#FFFFFF" d="M234.115,16.824l-2.02,2.187c-0.797-0.638-1.763-1.33-2.305-1.663v-0.048
			c0.214-0.189,0.237-0.389,0.237-0.855V8.816l-2.067-1.354c-0.172,0.126-0.395,0.292-0.475,0.356v8.483
			c0,0.573,0.19,0.832,0.594,0.975v0.047c-0.551,0.516-1.321,1.318-1.64,1.688c-0.577-0.493-1.49-1.175-1.973-1.497v-0.047
			c0.356-0.214,0.475-0.527,0.475-1.093V8.507l-0.522-0.451c-0.089-0.077-0.173-0.118-0.261-0.119
			c-0.107-0.002-0.22,0.054-0.357,0.19l-0.356,0.356l-0.213-0.19l2.21-2.376l2.043,1.521l2.02-1.545
			c0.857,0.62,2.576,1.599,3.469,2.043v0.048c-0.284,0.19-0.403,0.476-0.403,0.975v7.627l0.498,0.333
			c0.113,0.076,0.213,0.119,0.309,0.119c0.119,0,0.233-0.051,0.357-0.19l0.19-0.214L234.115,16.824z"/>
		<path fill="#FFFFFF" d="M214.415,16.634l-2.234,2.4c-0.818-0.601-1.854-1.307-2.424-1.687v-0.024
			c0.38-0.261,0.38-0.455,0.38-0.879V9.006l-1.948-1.355l-0.594,0.523v8.341c0,0.324,0.19,0.57,0.57,0.737v0.047l-1.64,1.711
			c-0.615-0.499-1.477-1.151-1.996-1.497v-0.047c0.404-0.309,0.523-0.503,0.523-0.927V8.935l-2.043-1.402l-0.546,0.452v8.436
			c0,0.38,0.213,0.689,0.617,0.832v0.047l-1.663,1.711c-0.531-0.416-1.337-1.028-1.973-1.473v-0.048
			c0.375-0.231,0.5-0.604,0.5-1.069V8.341l-0.452-0.333c-0.103-0.076-0.197-0.098-0.285-0.095c-0.128,0.004-0.244,0.071-0.356,0.19
			l-0.404,0.428l-0.213-0.214l2.233-2.4l1.997,1.663l2.091-1.663c0.876,0.678,2.093,1.55,2.828,2.02l2.234-2.02
			c0.83,0.644,2.513,1.741,3.47,2.329v0.048c-0.378,0.261-0.404,0.547-0.404,1.045v7.2l0.476,0.309
			c0.151,0.099,0.257,0.146,0.356,0.143c0.114-0.004,0.221-0.079,0.379-0.237l0.309-0.309L214.415,16.634z"/>
		<path fill="#FFFFFF" d="M181.479,16.563l-2.21,2.448c-0.946-0.638-2.372-1.499-3.255-1.972V16.99
			c0.198-0.161,0.285-0.361,0.285-0.76V7.723h-1.425l0.475-0.879h0.974V5.251c0-0.357-0.007-0.642-0.285-0.855V4.349
			c1.26-0.119,1.918-1.592,3.279-1.616l0.048,0.095c-0.328,0.214-0.546,0.689-0.546,1.592v2.353h2.21l-0.547,1.141
			c-0.151-0.119-0.328-0.19-0.642-0.19h-1.021v8.412l1.235,0.642c0.217,0.112,0.369,0.166,0.5,0.166
			c0.15,0.001,0.271-0.069,0.428-0.237l0.309-0.333L181.479,16.563z"/>
		<path fill="#FFFFFF" d="M165.582,16.563l-2.21,2.448c-0.947-0.638-2.373-1.499-3.256-1.972V16.99
			c0.198-0.161,0.285-0.361,0.285-0.76V7.723h-1.426l0.475-0.879h0.975V5.251c0-0.357-0.008-0.642-0.285-0.855V4.349
			c1.261-0.119,1.918-1.592,3.279-1.616l0.047,0.095c-0.328,0.214-0.547,0.689-0.547,1.592v2.353h2.21l-0.546,1.141
			c-0.151-0.119-0.328-0.19-0.641-0.19h-1.022v8.412l1.236,0.642c0.216,0.112,0.368,0.166,0.499,0.166
			c0.151,0.001,0.272-0.069,0.428-0.237l0.309-0.333L165.582,16.563z"/>
		<path fill="#FFFFFF" d="M156.694,13.949c0,0.618-0.237,1.212-0.404,1.425h-0.071c0.023-0.189,0.047-0.506,0.047-0.688
			c0-1.304-0.303-2.6-2.281-3.589c-0.808-0.404-1.493-0.765-1.996-0.998l-0.855,1.568c-0.725,1.33-1.651,1.925-2.685,1.925
			c-0.349,0-0.62-0.136-0.809-0.237l0.571-0.999c0.176,0.214,0.404,0.356,0.713,0.356c0.783,0,1.499-0.422,1.972-1.26l0.832-1.473
			c-0.507-0.234-0.95-0.452-1.854-0.88c-1.513-0.716-2.353-1.449-2.353-2.661c0-0.404,0.155-0.916,0.262-1.093h0.071
			c0.075,1.188,0.365,1.948,2.257,2.899c1.493,0.75,2.911,1.449,4.349,2.163C156.127,11.235,156.694,12.451,156.694,13.949z"/>
		<path fill="#FFFFFF" d="M223.707,16.61l-2.163,2.4l-2.139-1.449l-2.329,1.449c-1.346-0.597-2.519-2.118-2.519-3.636
			c0-2.399,2.417-3.347,4.207-4.182l0.713-0.333V8.816l-2.875-1.426l-0.214,0.19c-0.071,0.285-0.095,0.594-0.095,1.093
			c0,0.642,0.334,1.283,0.712,1.473l-0.143,0.167c-1.008-0.072-1.702-1.045-1.854-2.043c0.887-0.576,2.361-1.731,3.113-2.4
			l4.349,1.948v0.047c-0.278,0.262-0.428,0.595-0.428,1.141v7.556l0.404,0.285c0.145,0.102,0.257,0.167,0.357,0.167
			c0.129,0,0.252-0.09,0.38-0.238l0.309-0.356L223.707,16.61z M219.477,17.133v-5.94l-0.761,0.38
			c-1.024,0.512-1.663,1.616-1.663,3.232c0,1.343,0.896,2.356,1.687,2.804L219.477,17.133z"/>
		<path fill="#FFFFFF" d="M198.47,5.87c0,0.19-0.197,0.649-0.285,0.784l-2.947,4.539l2.947,1.425v0.048
			c-0.261,0.166-0.38,0.382-0.38,0.855v3.493c-1.335,0.356-3.058,1.259-4.016,1.996c-0.452-0.404-0.951-0.737-1.711-0.737
			c-1.109,0-1.782,0.475-1.782,1.165c0,0.879,0.951,1.212,1.592,1.212l-0.285,0.333c-0.782-0.095-1.687-0.617-1.687-1.71
			c0-0.876,0.571-1.506,0.926-2.044l2.59-3.921l-3.278-1.664v-0.048c0.343-0.224,0.379-0.522,0.379-1.045v-2.4
			c1.387-0.356,3.036-1.425,3.969-2.257c0.754,0.625,1.449,1.07,2.162,1.07c0.933,0,1.474-0.574,1.474-1.022
			c0-0.404-0.143-0.571-0.333-0.713l0.38-0.261C198.333,5.12,198.47,5.345,198.47,5.87z M196.783,8.246
			c-0.209,0.099-0.966,0.309-1.521,0.309c-0.713,0-1.544-0.285-2.352-1.117l-0.024,0.023v3.018l1.83,0.927L196.783,8.246z
			 M195.476,17.323v-3.445l-1.568-0.784l-2.591,3.921c0.476-0.261,1.093-0.499,2.187-0.499c0.53,0,1.185,0.235,1.924,0.808H195.476z
			"/>
		<path fill="#FFFFFF" d="M189.701,9.386l-4.872,3.255v3.089l2.163,1.117c0.169,0.087,0.294,0.119,0.404,0.119
			c0.167,0,0.294-0.093,0.476-0.285l0.356-0.38l0.214,0.19l-2.305,2.519c-1.592-0.974-3.137-1.83-4.277-2.4v-0.048
			c0.404-0.19,0.452-0.52,0.452-0.998V8.531c1.563-0.522,3.355-1.592,4.515-2.614C187.463,6.804,188.888,8.522,189.701,9.386z
			 M187.254,10.646c-0.625-0.771-1.806-2.21-2.353-3.041l-0.072,0.047v4.61L187.254,10.646z"/>
		<path fill="#FFFFFF" d="M175.135,16.61l-2.163,2.4l-2.139-1.449l-2.329,1.449c-1.346-0.597-2.519-2.118-2.519-3.636
			c0-2.399,2.417-3.347,4.207-4.182l0.713-0.333V8.816l-2.876-1.426l-0.214,0.19c-0.071,0.285-0.095,0.594-0.095,1.093
			c0,0.642,0.335,1.283,0.713,1.473l-0.143,0.167c-1.008-0.072-1.702-1.045-1.853-2.043c0.887-0.576,2.361-1.731,3.113-2.4
			l4.349,1.948v0.047c-0.278,0.262-0.428,0.595-0.428,1.141v7.556l0.404,0.285c0.145,0.102,0.257,0.167,0.357,0.167
			c0.129,0,0.252-0.09,0.38-0.238l0.309-0.356L175.135,16.61z M170.905,17.133v-5.94l-0.761,0.38
			c-1.024,0.512-1.664,1.616-1.664,3.232c0,1.343,0.896,2.356,1.687,2.804L170.905,17.133z"/>
		<path fill="#FFFFFF" d="M159.023,12.095c0,2.882-2.265,4.586-5.442,6.915c-0.879-0.76-2.071-1.568-3.256-1.568
			c-2.115,0-3.66,0.832-3.66,2.02c0,1.164,1.082,1.782,2.115,1.782c0.746,0,1.221-0.261,1.474-0.38l-0.119,0.476
			c-0.176,0.071-0.641,0.262-1.473,0.262c-1.614,0-2.804-0.903-2.804-2.59c0-2.78,2.588-3.921,5.108-3.921
			c2.143,0,3.762,1.131,4.682,1.901c0.882-0.808,1.616-1.877,1.616-3.231c0-1.664-0.784-3.137-2.258-3.85
			c-1.434-0.694-2.794-1.331-4.206-1.996c-1.698-0.8-2.566-1.579-2.566-3.398c0-2.233,1.851-4.396,5.205-4.396
			c1.383,0,2.661,0.38,3.493,0.927l0.404-0.618l0.285,0.167c-1.128,1.681-2.829,4.42-3.636,5.965
			c0.605,0.285,1.188,0.559,2.115,1.021C158.196,8.627,159.023,10.004,159.023,12.095z M155.768,2.946
			c-0.681-0.95-1.973-1.497-3.208-1.497c-2.091,0-3.089,0.599-3.089,1.711c0,0.859,0.765,1.523,1.901,2.091
			c0.999,0.499,1.566,0.786,2.33,1.165C154.186,5.573,155.221,3.778,155.768,2.946z"/>
		<path fill="#FFFFFF" d="M174.398,16.942"/>
	</g>
</g>
</svg>
